ISO-10303-21;
HEADER;
FILE_DESCRIPTION(('FreeCAD Model'),'2;1');
FILE_NAME('Open CASCADE Shape Model','2026-09-04T12:22:11',(''),(''),
  'Open CASCADE STEP processor 7.8','FreeCAD','Unknown');
FILE_SCHEMA(('AUTOMOTIVE_DESIGN { 1 0 10303 214 1 1 1 1 }'));
ENDSEC;
DATA;
#1 = APPLICATION_PROTOCOL_DEFINITION('international standard',
  'automotive_design',2000,#2);
#2 = APPLICATION_CONTEXT(
  'core data for automotive mechanical design processes');
#3 = SHAPE_DEFINITION_REPRESENTATION(#4,#10);
#4 = PRODUCT_DEFINITION_SHAPE('','',#5);
#5 = PRODUCT_DEFINITION('design','',#6,#9);
#6 = PRODUCT_DEFINITION_FORMATION('','',#7);
#7 = PRODUCT('Body','Body','',(#8));
#8 = PRODUCT_CONTEXT('',#2,'mechanical');
#9 = PRODUCT_DEFINITION_CONTEXT('part definition',#2,'design');
#10 = ADVANCED_BREP_SHAPE_REPRESENTATION('',(#11,#15),#926);
#11 = AXIS2_PLACEMENT_3D('',#12,#13,#14);
#12 = CARTESIAN_POINT('',(0.,0.,0.));
#13 = DIRECTION('',(0.,0.,1.));
#14 = DIRECTION('',(1.,0.,-0.));
#15 = MANIFOLD_SOLID_BREP('',#16);
#16 = CLOSED_SHELL('',(#17,#73,#120,#182,#248,#279,#303,#362,#386,#432,
    #497,#523,#563,#580,#597,#614,#636,#653,#665,#682,#694,#758,#782,
    #834,#846,#863,#885,#902,#914));
#17 = ADVANCED_FACE('',(#18),#68,.T.);
#18 = FACE_BOUND('',#19,.T.);
#19 = EDGE_LOOP('',(#20,#30,#38,#46,#54,#62));
#20 = ORIENTED_EDGE('',*,*,#21,.T.);
#21 = EDGE_CURVE('',#22,#24,#26,.T.);
#22 = VERTEX_POINT('',#23);
#23 = CARTESIAN_POINT('',(100.,0.,0.));
#24 = VERTEX_POINT('',#25);
#25 = CARTESIAN_POINT('',(100.,-55.,0.));
#26 = LINE('',#27,#28);
#27 = CARTESIAN_POINT('',(100.,0.,0.));
#28 = VECTOR('',#29,1.);
#29 = DIRECTION('',(0.,-1.,0.));
#30 = ORIENTED_EDGE('',*,*,#31,.T.);
#31 = EDGE_CURVE('',#24,#32,#34,.T.);
#32 = VERTEX_POINT('',#33);
#33 = CARTESIAN_POINT('',(70.,-55.,0.));
#34 = LINE('',#35,#36);
#35 = CARTESIAN_POINT('',(25.,-55.,-3.552713678801E-15));
#36 = VECTOR('',#37,1.);
#37 = DIRECTION('',(-1.,0.,0.));
#38 = ORIENTED_EDGE('',*,*,#39,.F.);
#39 = EDGE_CURVE('',#40,#32,#42,.T.);
#40 = VERTEX_POINT('',#41);
#41 = CARTESIAN_POINT('',(70.,0.,0.));
#42 = LINE('',#43,#44);
#43 = CARTESIAN_POINT('',(70.,0.,0.));
#44 = VECTOR('',#45,1.);
#45 = DIRECTION('',(0.,-1.,0.));
#46 = ORIENTED_EDGE('',*,*,#47,.T.);
#47 = EDGE_CURVE('',#40,#48,#50,.T.);
#48 = VERTEX_POINT('',#49);
#49 = CARTESIAN_POINT('',(75.,30.,0.));
#50 = LINE('',#51,#52);
#51 = CARTESIAN_POINT('',(70.,0.,0.));
#52 = VECTOR('',#53,1.);
#53 = DIRECTION('',(0.164398987305,0.986393923832,0.));
#54 = ORIENTED_EDGE('',*,*,#55,.T.);
#55 = EDGE_CURVE('',#48,#56,#58,.T.);
#56 = VERTEX_POINT('',#57);
#57 = CARTESIAN_POINT('',(95.,30.,0.));
#58 = LINE('',#59,#60);
#59 = CARTESIAN_POINT('',(75.,30.,0.));
#60 = VECTOR('',#61,1.);
#61 = DIRECTION('',(1.,0.,0.));
#62 = ORIENTED_EDGE('',*,*,#63,.F.);
#63 = EDGE_CURVE('',#22,#56,#64,.T.);
#64 = LINE('',#65,#66);
#65 = CARTESIAN_POINT('',(100.,0.,0.));
#66 = VECTOR('',#67,1.);
#67 = DIRECTION('',(-0.164398987305,0.986393923832,0.));
#68 = PLANE('',#69);
#69 = AXIS2_PLACEMENT_3D('',#70,#71,#72);
#70 = CARTESIAN_POINT('',(50.,-30.8175181471,0.));
#71 = DIRECTION('',(-0.,-0.,-1.));
#72 = DIRECTION('',(-1.,0.,0.));
#73 = ADVANCED_FACE('',(#74),#115,.T.);
#74 = FACE_BOUND('',#75,.T.);
#75 = EDGE_LOOP('',(#76,#86,#92,#93,#101,#109));
#76 = ORIENTED_EDGE('',*,*,#77,.F.);
#77 = EDGE_CURVE('',#78,#80,#82,.T.);
#78 = VERTEX_POINT('',#79);
#79 = CARTESIAN_POINT('',(100.,-82.,-27.));
#80 = VERTEX_POINT('',#81);
#81 = CARTESIAN_POINT('',(100.,-85.,-27.));
#82 = LINE('',#83,#84);
#83 = CARTESIAN_POINT('',(100.,-55.,-27.));
#84 = VECTOR('',#85,1.);
#85 = DIRECTION('',(0.,-1.,0.));
#86 = ORIENTED_EDGE('',*,*,#87,.T.);
#87 = EDGE_CURVE('',#78,#24,#88,.T.);
#88 = LINE('',#89,#90);
#89 = CARTESIAN_POINT('',(100.,-60.375,-5.375));
#90 = VECTOR('',#91,1.);
#91 = DIRECTION('',(0.,0.707106781187,0.707106781187));
#92 = ORIENTED_EDGE('',*,*,#21,.F.);
#93 = ORIENTED_EDGE('',*,*,#94,.T.);
#94 = EDGE_CURVE('',#22,#95,#97,.T.);
#95 = VERTEX_POINT('',#96);
#96 = CARTESIAN_POINT('',(100.,0.,13.));
#97 = LINE('',#98,#99);
#98 = CARTESIAN_POINT('',(100.,0.,0.));
#99 = VECTOR('',#100,1.);
#100 = DIRECTION('',(0.,0.,1.));
#101 = ORIENTED_EDGE('',*,*,#102,.T.);
#102 = EDGE_CURVE('',#95,#103,#105,.T.);
#103 = VERTEX_POINT('',#104);
#104 = CARTESIAN_POINT('',(100.,-85.,13.));
#105 = LINE('',#106,#107);
#106 = CARTESIAN_POINT('',(100.,-55.,13.));
#107 = VECTOR('',#108,1.);
#108 = DIRECTION('',(-0.,-1.,-0.));
#109 = ORIENTED_EDGE('',*,*,#110,.T.);
#110 = EDGE_CURVE('',#103,#80,#111,.T.);
#111 = LINE('',#112,#113);
#112 = CARTESIAN_POINT('',(100.,-85.,0.));
#113 = VECTOR('',#114,1.);
#114 = DIRECTION('',(0.,0.,-1.));
#115 = PLANE('',#116);
#116 = AXIS2_PLACEMENT_3D('',#117,#118,#119);
#117 = CARTESIAN_POINT('',(100.,-48.44,-1.06));
#118 = DIRECTION('',(1.,0.,0.));
#119 = DIRECTION('',(0.,0.,1.));
#120 = ADVANCED_FACE('',(#121,#155,#166),#177,.F.);
#121 = FACE_BOUND('',#122,.F.);
#122 = EDGE_LOOP('',(#123,#133,#139,#140,#141,#149));
#123 = ORIENTED_EDGE('',*,*,#124,.F.);
#124 = EDGE_CURVE('',#125,#127,#129,.T.);
#125 = VERTEX_POINT('',#126);
#126 = CARTESIAN_POINT('',(0.,-82.,-27.));
#127 = VERTEX_POINT('',#128);
#128 = CARTESIAN_POINT('',(0.,-55.,0.));
#129 = LINE('',#130,#131);
#130 = CARTESIAN_POINT('',(0.,-60.375,-5.375));
#131 = VECTOR('',#132,1.);
#132 = DIRECTION('',(0.,0.707106781187,0.707106781187));
#133 = ORIENTED_EDGE('',*,*,#134,.T.);
#134 = EDGE_CURVE('',#125,#78,#135,.T.);
#135 = LINE('',#136,#137);
#136 = CARTESIAN_POINT('',(0.,-82.,-27.));
#137 = VECTOR('',#138,1.);
#138 = DIRECTION('',(1.,0.,0.));
#139 = ORIENTED_EDGE('',*,*,#87,.T.);
#140 = ORIENTED_EDGE('',*,*,#31,.T.);
#141 = ORIENTED_EDGE('',*,*,#142,.F.);
#142 = EDGE_CURVE('',#143,#32,#145,.T.);
#143 = VERTEX_POINT('',#144);
#144 = CARTESIAN_POINT('',(30.,-55.,0.));
#145 = LINE('',#146,#147);
#146 = CARTESIAN_POINT('',(0.,-55.,0.));
#147 = VECTOR('',#148,1.);
#148 = DIRECTION('',(1.,0.,0.));
#149 = ORIENTED_EDGE('',*,*,#150,.F.);
#150 = EDGE_CURVE('',#127,#143,#151,.T.);
#151 = LINE('',#152,#153);
#152 = CARTESIAN_POINT('',(25.,-55.,-3.552713678801E-15));
#153 = VECTOR('',#154,1.);
#154 = DIRECTION('',(1.,0.,0.));
#155 = FACE_BOUND('',#156,.F.);
#156 = EDGE_LOOP('',(#157));
#157 = ORIENTED_EDGE('',*,*,#158,.F.);
#158 = EDGE_CURVE('',#159,#159,#161,.T.);
#159 = VERTEX_POINT('',#160);
#160 = CARTESIAN_POINT('',(14.,-68.5,-13.5));
#161 = ELLIPSE('',#162,1.414213562373,1.);
#162 = AXIS2_PLACEMENT_3D('',#163,#164,#165);
#163 = CARTESIAN_POINT('',(15.,-68.5,-13.5));
#164 = DIRECTION('',(0.,-0.707106781187,0.707106781187));
#165 = DIRECTION('',(0.,0.707106781187,0.707106781187));
#166 = FACE_BOUND('',#167,.F.);
#167 = EDGE_LOOP('',(#168));
#168 = ORIENTED_EDGE('',*,*,#169,.F.);
#169 = EDGE_CURVE('',#170,#170,#172,.T.);
#170 = VERTEX_POINT('',#171);
#171 = CARTESIAN_POINT('',(84.,-68.5,-13.5));
#172 = ELLIPSE('',#173,1.414213562373,1.);
#173 = AXIS2_PLACEMENT_3D('',#174,#175,#176);
#174 = CARTESIAN_POINT('',(85.,-68.5,-13.5));
#175 = DIRECTION('',(0.,-0.707106781187,0.707106781187));
#176 = DIRECTION('',(0.,0.707106781187,0.707106781187));
#177 = PLANE('',#178);
#178 = AXIS2_PLACEMENT_3D('',#179,#180,#181);
#179 = CARTESIAN_POINT('',(0.,-68.5,-13.5));
#180 = DIRECTION('',(0.,-0.707106781187,0.707106781187));
#181 = DIRECTION('',(1.,0.,0.));
#182 = ADVANCED_FACE('',(#183),#243,.F.);
#183 = FACE_BOUND('',#184,.F.);
#184 = EDGE_LOOP('',(#185,#195,#204,#210,#211,#212,#220,#228,#236));
#185 = ORIENTED_EDGE('',*,*,#186,.T.);
#186 = EDGE_CURVE('',#187,#189,#191,.T.);
#187 = VERTEX_POINT('',#188);
#188 = CARTESIAN_POINT('',(95.866236357153,24.802581857083,30.));
#189 = VERTEX_POINT('',#190);
#190 = CARTESIAN_POINT('',(95.5,27.,30.));
#191 = LINE('',#192,#193);
#192 = CARTESIAN_POINT('',(100.,0.,30.));
#193 = VECTOR('',#194,1.);
#194 = DIRECTION('',(-0.164398987305,0.986393923832,0.));
#195 = ORIENTED_EDGE('',*,*,#196,.T.);
#196 = EDGE_CURVE('',#189,#197,#199,.T.);
#197 = VERTEX_POINT('',#198);
#198 = CARTESIAN_POINT('',(95.,30.,27.));
#199 = ELLIPSE('',#200,3.041381265149,3.);
#200 = AXIS2_PLACEMENT_3D('',#201,#202,#203);
#201 = CARTESIAN_POINT('',(95.5,27.,27.));
#202 = DIRECTION('',(-0.986393923832,-0.164398987305,0.));
#203 = DIRECTION('',(0.164398987305,-0.986393923832,0.));
#204 = ORIENTED_EDGE('',*,*,#205,.F.);
#205 = EDGE_CURVE('',#56,#197,#206,.T.);
#206 = LINE('',#207,#208);
#207 = CARTESIAN_POINT('',(95.,30.,0.));
#208 = VECTOR('',#209,1.);
#209 = DIRECTION('',(0.,0.,1.));
#210 = ORIENTED_EDGE('',*,*,#63,.F.);
#211 = ORIENTED_EDGE('',*,*,#94,.T.);
#212 = ORIENTED_EDGE('',*,*,#213,.F.);
#213 = EDGE_CURVE('',#214,#95,#216,.T.);
#214 = VERTEX_POINT('',#215);
#215 = CARTESIAN_POINT('',(97.5,15.,13.));
#216 = LINE('',#217,#218);
#217 = CARTESIAN_POINT('',(97.5,15.,13.));
#218 = VECTOR('',#219,1.);
#219 = DIRECTION('',(0.164398987305,-0.986393923832,0.));
#220 = ORIENTED_EDGE('',*,*,#221,.F.);
#221 = EDGE_CURVE('',#222,#214,#224,.T.);
#222 = VERTEX_POINT('',#223);
#223 = CARTESIAN_POINT('',(97.5,15.,14.954188277229));
#224 = LINE('',#225,#226);
#225 = CARTESIAN_POINT('',(97.5,15.,30.));
#226 = VECTOR('',#227,1.);
#227 = DIRECTION('',(-0.,-0.,-1.));
#228 = ORIENTED_EDGE('',*,*,#229,.F.);
#229 = EDGE_CURVE('',#230,#222,#232,.T.);
#230 = VERTEX_POINT('',#231);
#231 = CARTESIAN_POINT('',(96.307710153582,22.153739078506,
    28.408414688358));
#232 = LINE('',#233,#234);
#233 = CARTESIAN_POINT('',(97.963551986885,12.218688078691,
    9.723301338441));
#234 = VECTOR('',#235,1.);
#235 = DIRECTION('',(7.80068334104E-02,-0.468041000462,-0.880257096437)
  );
#236 = ORIENTED_EDGE('',*,*,#237,.F.);
#237 = EDGE_CURVE('',#187,#230,#238,.T.);
#238 = ELLIPSE('',#239,3.041381265149,3.);
#239 = AXIS2_PLACEMENT_3D('',#240,#241,#242);
#240 = CARTESIAN_POINT('',(95.866236357153,24.802581857083,27.));
#241 = DIRECTION('',(0.986393923832,0.164398987305,-0.));
#242 = DIRECTION('',(-0.164398987305,0.986393923832,0.));
#243 = PLANE('',#244);
#244 = AXIS2_PLACEMENT_3D('',#245,#246,#247);
#245 = CARTESIAN_POINT('',(100.,0.,0.));
#246 = DIRECTION('',(-0.986393923832,-0.164398987305,0.));
#247 = DIRECTION('',(-0.164398987305,0.986393923832,0.));
#248 = ADVANCED_FACE('',(#249),#274,.T.);
#249 = FACE_BOUND('',#250,.T.);
#250 = EDGE_LOOP('',(#251,#252,#260,#268));
#251 = ORIENTED_EDGE('',*,*,#39,.T.);
#252 = ORIENTED_EDGE('',*,*,#253,.T.);
#253 = EDGE_CURVE('',#32,#254,#256,.T.);
#254 = VERTEX_POINT('',#255);
#255 = CARTESIAN_POINT('',(70.,-55.,13.));
#256 = LINE('',#257,#258);
#257 = CARTESIAN_POINT('',(70.,-55.,0.));
#258 = VECTOR('',#259,1.);
#259 = DIRECTION('',(0.,0.,1.));
#260 = ORIENTED_EDGE('',*,*,#261,.F.);
#261 = EDGE_CURVE('',#262,#254,#264,.T.);
#262 = VERTEX_POINT('',#263);
#263 = CARTESIAN_POINT('',(70.,0.,13.));
#264 = LINE('',#265,#266);
#265 = CARTESIAN_POINT('',(70.,0.,13.));
#266 = VECTOR('',#267,1.);
#267 = DIRECTION('',(0.,-1.,0.));
#268 = ORIENTED_EDGE('',*,*,#269,.F.);
#269 = EDGE_CURVE('',#40,#262,#270,.T.);
#270 = LINE('',#271,#272);
#271 = CARTESIAN_POINT('',(70.,0.,0.));
#272 = VECTOR('',#273,1.);
#273 = DIRECTION('',(0.,0.,1.));
#274 = PLANE('',#275);
#275 = AXIS2_PLACEMENT_3D('',#276,#277,#278);
#276 = CARTESIAN_POINT('',(70.,0.,0.));
#277 = DIRECTION('',(-1.,0.,0.));
#278 = DIRECTION('',(0.,0.,1.));
#279 = ADVANCED_FACE('',(#280),#298,.T.);
#280 = FACE_BOUND('',#281,.T.);
#281 = EDGE_LOOP('',(#282,#290,#296,#297));
#282 = ORIENTED_EDGE('',*,*,#283,.T.);
#283 = EDGE_CURVE('',#48,#284,#286,.T.);
#284 = VERTEX_POINT('',#285);
#285 = CARTESIAN_POINT('',(75.,30.,27.));
#286 = LINE('',#287,#288);
#287 = CARTESIAN_POINT('',(75.,30.,0.));
#288 = VECTOR('',#289,1.);
#289 = DIRECTION('',(0.,0.,1.));
#290 = ORIENTED_EDGE('',*,*,#291,.T.);
#291 = EDGE_CURVE('',#284,#197,#292,.T.);
#292 = LINE('',#293,#294);
#293 = CARTESIAN_POINT('',(75.,30.,27.));
#294 = VECTOR('',#295,1.);
#295 = DIRECTION('',(1.,0.,0.));
#296 = ORIENTED_EDGE('',*,*,#205,.F.);
#297 = ORIENTED_EDGE('',*,*,#55,.F.);
#298 = PLANE('',#299);
#299 = AXIS2_PLACEMENT_3D('',#300,#301,#302);
#300 = CARTESIAN_POINT('',(75.,30.,0.));
#301 = DIRECTION('',(0.,1.,0.));
#302 = DIRECTION('',(1.,0.,0.));
#303 = ADVANCED_FACE('',(#304),#357,.T.);
#304 = FACE_BOUND('',#305,.T.);
#305 = EDGE_LOOP('',(#306,#316,#323,#324,#325,#326,#334,#342,#350));
#306 = ORIENTED_EDGE('',*,*,#307,.T.);
#307 = EDGE_CURVE('',#308,#310,#312,.T.);
#308 = VERTEX_POINT('',#309);
#309 = CARTESIAN_POINT('',(74.133763642847,24.802581857083,30.));
#310 = VERTEX_POINT('',#311);
#311 = CARTESIAN_POINT('',(74.5,27.,30.));
#312 = LINE('',#313,#314);
#313 = CARTESIAN_POINT('',(70.,0.,30.));
#314 = VECTOR('',#315,1.);
#315 = DIRECTION('',(0.164398987305,0.986393923832,0.));
#316 = ORIENTED_EDGE('',*,*,#317,.T.);
#317 = EDGE_CURVE('',#310,#284,#318,.T.);
#318 = ELLIPSE('',#319,3.041381265149,3.);
#319 = AXIS2_PLACEMENT_3D('',#320,#321,#322);
#320 = CARTESIAN_POINT('',(74.5,27.,27.));
#321 = DIRECTION('',(-0.986393923832,0.164398987305,0.));
#322 = DIRECTION('',(0.164398987305,0.986393923832,0.));
#323 = ORIENTED_EDGE('',*,*,#283,.F.);
#324 = ORIENTED_EDGE('',*,*,#47,.F.);
#325 = ORIENTED_EDGE('',*,*,#269,.T.);
#326 = ORIENTED_EDGE('',*,*,#327,.F.);
#327 = EDGE_CURVE('',#328,#262,#330,.T.);
#328 = VERTEX_POINT('',#329);
#329 = CARTESIAN_POINT('',(72.5,15.,13.));
#330 = LINE('',#331,#332);
#331 = CARTESIAN_POINT('',(72.5,15.,13.));
#332 = VECTOR('',#333,1.);
#333 = DIRECTION('',(-0.164398987305,-0.986393923832,0.));
#334 = ORIENTED_EDGE('',*,*,#335,.F.);
#335 = EDGE_CURVE('',#336,#328,#338,.T.);
#336 = VERTEX_POINT('',#337);
#337 = CARTESIAN_POINT('',(72.5,15.,14.954188277229));
#338 = LINE('',#339,#340);
#339 = CARTESIAN_POINT('',(72.5,15.,30.));
#340 = VECTOR('',#341,1.);
#341 = DIRECTION('',(-0.,-0.,-1.));
#342 = ORIENTED_EDGE('',*,*,#343,.F.);
#343 = EDGE_CURVE('',#344,#336,#346,.T.);
#344 = VERTEX_POINT('',#345);
#345 = CARTESIAN_POINT('',(73.692289846418,22.153739078506,
    28.408414688358));
#346 = LINE('',#347,#348);
#347 = CARTESIAN_POINT('',(72.112511338849,12.675068033095,
    10.581627196942));
#348 = VECTOR('',#349,1.);
#349 = DIRECTION('',(-7.80068334104E-02,-0.468041000462,-0.880257096437)
  );
#350 = ORIENTED_EDGE('',*,*,#351,.F.);
#351 = EDGE_CURVE('',#308,#344,#352,.T.);
#352 = ELLIPSE('',#353,3.041381265149,3.);
#353 = AXIS2_PLACEMENT_3D('',#354,#355,#356);
#354 = CARTESIAN_POINT('',(74.133763642847,24.802581857083,27.));
#355 = DIRECTION('',(0.986393923832,-0.164398987305,0.));
#356 = DIRECTION('',(-0.164398987305,-0.986393923832,0.));
#357 = PLANE('',#358);
#358 = AXIS2_PLACEMENT_3D('',#359,#360,#361);
#359 = CARTESIAN_POINT('',(70.,0.,0.));
#360 = DIRECTION('',(-0.986393923832,0.164398987305,0.));
#361 = DIRECTION('',(0.164398987305,0.986393923832,0.));
#362 = ADVANCED_FACE('',(#363),#381,.F.);
#363 = FACE_BOUND('',#364,.F.);
#364 = EDGE_LOOP('',(#365,#373,#379,#380));
#365 = ORIENTED_EDGE('',*,*,#366,.F.);
#366 = EDGE_CURVE('',#367,#125,#369,.T.);
#367 = VERTEX_POINT('',#368);
#368 = CARTESIAN_POINT('',(0.,-85.,-27.));
#369 = LINE('',#370,#371);
#370 = CARTESIAN_POINT('',(0.,-85.,-27.));
#371 = VECTOR('',#372,1.);
#372 = DIRECTION('',(0.,1.,0.));
#373 = ORIENTED_EDGE('',*,*,#374,.F.);
#374 = EDGE_CURVE('',#80,#367,#375,.T.);
#375 = LINE('',#376,#377);
#376 = CARTESIAN_POINT('',(100.,-85.,-27.));
#377 = VECTOR('',#378,1.);
#378 = DIRECTION('',(-1.,0.,0.));
#379 = ORIENTED_EDGE('',*,*,#77,.F.);
#380 = ORIENTED_EDGE('',*,*,#134,.F.);
#381 = PLANE('',#382);
#382 = AXIS2_PLACEMENT_3D('',#383,#384,#385);
#383 = CARTESIAN_POINT('',(50.,-70.,-27.));
#384 = DIRECTION('',(0.,0.,1.));
#385 = DIRECTION('',(1.,0.,0.));
#386 = ADVANCED_FACE('',(#387,#405,#416),#427,.T.);
#387 = FACE_BOUND('',#388,.T.);
#388 = EDGE_LOOP('',(#389,#397,#403,#404));
#389 = ORIENTED_EDGE('',*,*,#390,.F.);
#390 = EDGE_CURVE('',#391,#103,#393,.T.);
#391 = VERTEX_POINT('',#392);
#392 = CARTESIAN_POINT('',(0.,-85.,13.));
#393 = LINE('',#394,#395);
#394 = CARTESIAN_POINT('',(0.,-85.,13.));
#395 = VECTOR('',#396,1.);
#396 = DIRECTION('',(1.,0.,0.));
#397 = ORIENTED_EDGE('',*,*,#398,.F.);
#398 = EDGE_CURVE('',#367,#391,#399,.T.);
#399 = LINE('',#400,#401);
#400 = CARTESIAN_POINT('',(0.,-85.,0.));
#401 = VECTOR('',#402,1.);
#402 = DIRECTION('',(0.,0.,1.));
#403 = ORIENTED_EDGE('',*,*,#374,.F.);
#404 = ORIENTED_EDGE('',*,*,#110,.F.);
#405 = FACE_BOUND('',#406,.T.);
#406 = EDGE_LOOP('',(#407));
#407 = ORIENTED_EDGE('',*,*,#408,.F.);
#408 = EDGE_CURVE('',#409,#409,#411,.T.);
#409 = VERTEX_POINT('',#410);
#410 = CARTESIAN_POINT('',(14.,-85.,-13.5));
#411 = CIRCLE('',#412,1.);
#412 = AXIS2_PLACEMENT_3D('',#413,#414,#415);
#413 = CARTESIAN_POINT('',(15.,-85.,-13.5));
#414 = DIRECTION('',(0.,-1.,2.22044604925E-16));
#415 = DIRECTION('',(-1.,0.,0.));
#416 = FACE_BOUND('',#417,.T.);
#417 = EDGE_LOOP('',(#418));
#418 = ORIENTED_EDGE('',*,*,#419,.F.);
#419 = EDGE_CURVE('',#420,#420,#422,.T.);
#420 = VERTEX_POINT('',#421);
#421 = CARTESIAN_POINT('',(84.,-85.,-13.5));
#422 = CIRCLE('',#423,1.);
#423 = AXIS2_PLACEMENT_3D('',#424,#425,#426);
#424 = CARTESIAN_POINT('',(85.,-85.,-13.5));
#425 = DIRECTION('',(0.,-1.,2.22044604925E-16));
#426 = DIRECTION('',(-1.,0.,0.));
#427 = PLANE('',#428);
#428 = AXIS2_PLACEMENT_3D('',#429,#430,#431);
#429 = CARTESIAN_POINT('',(50.,-85.,-7.));
#430 = DIRECTION('',(-0.,-1.,-0.));
#431 = DIRECTION('',(0.,0.,-1.));
#432 = ADVANCED_FACE('',(#433),#492,.T.);
#433 = FACE_BOUND('',#434,.T.);
#434 = EDGE_LOOP('',(#435,#445,#453,#461,#467,#468,#469,#470,#476,#477,
    #478,#486));
#435 = ORIENTED_EDGE('',*,*,#436,.F.);
#436 = EDGE_CURVE('',#437,#439,#441,.T.);
#437 = VERTEX_POINT('',#438);
#438 = CARTESIAN_POINT('',(27.5,15.,13.));
#439 = VERTEX_POINT('',#440);
#440 = CARTESIAN_POINT('',(30.,0.,13.));
#441 = LINE('',#442,#443);
#442 = CARTESIAN_POINT('',(27.5,15.,13.));
#443 = VECTOR('',#444,1.);
#444 = DIRECTION('',(0.164398987305,-0.986393923832,0.));
#445 = ORIENTED_EDGE('',*,*,#446,.T.);
#446 = EDGE_CURVE('',#437,#447,#449,.T.);
#447 = VERTEX_POINT('',#448);
#448 = CARTESIAN_POINT('',(2.5,15.,13.));
#449 = LINE('',#450,#451);
#450 = CARTESIAN_POINT('',(27.5,15.,13.));
#451 = VECTOR('',#452,1.);
#452 = DIRECTION('',(-1.,0.,0.));
#453 = ORIENTED_EDGE('',*,*,#454,.T.);
#454 = EDGE_CURVE('',#447,#455,#457,.T.);
#455 = VERTEX_POINT('',#456);
#456 = CARTESIAN_POINT('',(0.,0.,13.));
#457 = LINE('',#458,#459);
#458 = CARTESIAN_POINT('',(2.5,15.,13.));
#459 = VECTOR('',#460,1.);
#460 = DIRECTION('',(-0.164398987305,-0.986393923832,0.));
#461 = ORIENTED_EDGE('',*,*,#462,.T.);
#462 = EDGE_CURVE('',#455,#391,#463,.T.);
#463 = LINE('',#464,#465);
#464 = CARTESIAN_POINT('',(0.,0.,13.));
#465 = VECTOR('',#466,1.);
#466 = DIRECTION('',(0.,-1.,0.));
#467 = ORIENTED_EDGE('',*,*,#390,.T.);
#468 = ORIENTED_EDGE('',*,*,#102,.F.);
#469 = ORIENTED_EDGE('',*,*,#213,.F.);
#470 = ORIENTED_EDGE('',*,*,#471,.T.);
#471 = EDGE_CURVE('',#214,#328,#472,.T.);
#472 = LINE('',#473,#474);
#473 = CARTESIAN_POINT('',(97.5,15.,13.));
#474 = VECTOR('',#475,1.);
#475 = DIRECTION('',(-1.,0.,0.));
#476 = ORIENTED_EDGE('',*,*,#327,.T.);
#477 = ORIENTED_EDGE('',*,*,#261,.T.);
#478 = ORIENTED_EDGE('',*,*,#479,.F.);
#479 = EDGE_CURVE('',#480,#254,#482,.T.);
#480 = VERTEX_POINT('',#481);
#481 = CARTESIAN_POINT('',(30.,-55.,13.));
#482 = LINE('',#483,#484);
#483 = CARTESIAN_POINT('',(0.,-55.,13.));
#484 = VECTOR('',#485,1.);
#485 = DIRECTION('',(1.,0.,0.));
#486 = ORIENTED_EDGE('',*,*,#487,.F.);
#487 = EDGE_CURVE('',#439,#480,#488,.T.);
#488 = LINE('',#489,#490);
#489 = CARTESIAN_POINT('',(30.,0.,13.));
#490 = VECTOR('',#491,1.);
#491 = DIRECTION('',(0.,-1.,0.));
#492 = PLANE('',#493);
#493 = AXIS2_PLACEMENT_3D('',#494,#495,#496);
#494 = CARTESIAN_POINT('',(50.,-37.19435814772,13.));
#495 = DIRECTION('',(0.,0.,1.));
#496 = DIRECTION('',(1.,0.,0.));
#497 = ADVANCED_FACE('',(#498),#518,.T.);
#498 = FACE_BOUND('',#499,.T.);
#499 = EDGE_LOOP('',(#500,#508,#509,#510,#511,#512));
#500 = ORIENTED_EDGE('',*,*,#501,.T.);
#501 = EDGE_CURVE('',#502,#127,#504,.T.);
#502 = VERTEX_POINT('',#503);
#503 = CARTESIAN_POINT('',(0.,0.,0.));
#504 = LINE('',#505,#506);
#505 = CARTESIAN_POINT('',(0.,-55.,0.));
#506 = VECTOR('',#507,1.);
#507 = DIRECTION('',(-0.,-1.,-0.));
#508 = ORIENTED_EDGE('',*,*,#124,.F.);
#509 = ORIENTED_EDGE('',*,*,#366,.F.);
#510 = ORIENTED_EDGE('',*,*,#398,.T.);
#511 = ORIENTED_EDGE('',*,*,#462,.F.);
#512 = ORIENTED_EDGE('',*,*,#513,.F.);
#513 = EDGE_CURVE('',#502,#455,#514,.T.);
#514 = LINE('',#515,#516);
#515 = CARTESIAN_POINT('',(0.,0.,0.));
#516 = VECTOR('',#517,1.);
#517 = DIRECTION('',(0.,0.,1.));
#518 = PLANE('',#519);
#519 = AXIS2_PLACEMENT_3D('',#520,#521,#522);
#520 = CARTESIAN_POINT('',(0.,-48.44,-1.06));
#521 = DIRECTION('',(-1.,-0.,-0.));
#522 = DIRECTION('',(0.,0.,-1.));
#523 = ADVANCED_FACE('',(#524),#558,.T.);
#524 = FACE_BOUND('',#525,.T.);
#525 = EDGE_LOOP('',(#526,#527,#535,#543,#551,#557));
#526 = ORIENTED_EDGE('',*,*,#501,.F.);
#527 = ORIENTED_EDGE('',*,*,#528,.T.);
#528 = EDGE_CURVE('',#502,#529,#531,.T.);
#529 = VERTEX_POINT('',#530);
#530 = CARTESIAN_POINT('',(5.,30.,0.));
#531 = LINE('',#532,#533);
#532 = CARTESIAN_POINT('',(0.,0.,0.));
#533 = VECTOR('',#534,1.);
#534 = DIRECTION('',(0.164398987305,0.986393923832,0.));
#535 = ORIENTED_EDGE('',*,*,#536,.T.);
#536 = EDGE_CURVE('',#529,#537,#539,.T.);
#537 = VERTEX_POINT('',#538);
#538 = CARTESIAN_POINT('',(25.,30.,0.));
#539 = LINE('',#540,#541);
#540 = CARTESIAN_POINT('',(5.,30.,0.));
#541 = VECTOR('',#542,1.);
#542 = DIRECTION('',(1.,0.,0.));
#543 = ORIENTED_EDGE('',*,*,#544,.F.);
#544 = EDGE_CURVE('',#545,#537,#547,.T.);
#545 = VERTEX_POINT('',#546);
#546 = CARTESIAN_POINT('',(30.,0.,0.));
#547 = LINE('',#548,#549);
#548 = CARTESIAN_POINT('',(30.,0.,0.));
#549 = VECTOR('',#550,1.);
#550 = DIRECTION('',(-0.164398987305,0.986393923832,0.));
#551 = ORIENTED_EDGE('',*,*,#552,.T.);
#552 = EDGE_CURVE('',#545,#143,#553,.T.);
#553 = LINE('',#554,#555);
#554 = CARTESIAN_POINT('',(30.,0.,0.));
#555 = VECTOR('',#556,1.);
#556 = DIRECTION('',(0.,-1.,0.));
#557 = ORIENTED_EDGE('',*,*,#150,.F.);
#558 = PLANE('',#559);
#559 = AXIS2_PLACEMENT_3D('',#560,#561,#562);
#560 = CARTESIAN_POINT('',(50.,-30.8175181471,0.));
#561 = DIRECTION('',(-0.,-0.,-1.));
#562 = DIRECTION('',(-1.,0.,0.));
#563 = ADVANCED_FACE('',(#564),#575,.T.);
#564 = FACE_BOUND('',#565,.T.);
#565 = EDGE_LOOP('',(#566,#567,#573,#574));
#566 = ORIENTED_EDGE('',*,*,#142,.F.);
#567 = ORIENTED_EDGE('',*,*,#568,.T.);
#568 = EDGE_CURVE('',#143,#480,#569,.T.);
#569 = LINE('',#570,#571);
#570 = CARTESIAN_POINT('',(30.,-55.,0.));
#571 = VECTOR('',#572,1.);
#572 = DIRECTION('',(0.,0.,1.));
#573 = ORIENTED_EDGE('',*,*,#479,.T.);
#574 = ORIENTED_EDGE('',*,*,#253,.F.);
#575 = PLANE('',#576);
#576 = AXIS2_PLACEMENT_3D('',#577,#578,#579);
#577 = CARTESIAN_POINT('',(50.,-55.,-9.785714285714));
#578 = DIRECTION('',(0.,1.,0.));
#579 = DIRECTION('',(0.,0.,1.));
#580 = ADVANCED_FACE('',(#581),#592,.F.);
#581 = FACE_BOUND('',#582,.T.);
#582 = EDGE_LOOP('',(#583,#589,#590,#591));
#583 = ORIENTED_EDGE('',*,*,#584,.F.);
#584 = EDGE_CURVE('',#409,#159,#585,.T.);
#585 = LINE('',#586,#587);
#586 = CARTESIAN_POINT('',(14.,-85.,-13.5));
#587 = VECTOR('',#588,1.);
#588 = DIRECTION('',(6.217248937901E-17,1.,-2.22044604925E-16));
#589 = ORIENTED_EDGE('',*,*,#408,.T.);
#590 = ORIENTED_EDGE('',*,*,#584,.T.);
#591 = ORIENTED_EDGE('',*,*,#158,.F.);
#592 = CYLINDRICAL_SURFACE('',#593,1.);
#593 = AXIS2_PLACEMENT_3D('',#594,#595,#596);
#594 = CARTESIAN_POINT('',(15.,-85.,-13.5));
#595 = DIRECTION('',(0.,1.,-2.22044604925E-16));
#596 = DIRECTION('',(-1.,0.,0.));
#597 = ADVANCED_FACE('',(#598),#609,.F.);
#598 = FACE_BOUND('',#599,.T.);
#599 = EDGE_LOOP('',(#600,#606,#607,#608));
#600 = ORIENTED_EDGE('',*,*,#601,.F.);
#601 = EDGE_CURVE('',#420,#170,#602,.T.);
#602 = LINE('',#603,#604);
#603 = CARTESIAN_POINT('',(84.,-85.,-13.5));
#604 = VECTOR('',#605,1.);
#605 = DIRECTION('',(6.217248937901E-17,1.,-2.22044604925E-16));
#606 = ORIENTED_EDGE('',*,*,#419,.T.);
#607 = ORIENTED_EDGE('',*,*,#601,.T.);
#608 = ORIENTED_EDGE('',*,*,#169,.F.);
#609 = CYLINDRICAL_SURFACE('',#610,1.);
#610 = AXIS2_PLACEMENT_3D('',#611,#612,#613);
#611 = CARTESIAN_POINT('',(85.,-85.,-13.5));
#612 = DIRECTION('',(0.,1.,-2.22044604925E-16));
#613 = DIRECTION('',(-1.,0.,0.));
#614 = ADVANCED_FACE('',(#615),#631,.T.);
#615 = FACE_BOUND('',#616,.T.);
#616 = EDGE_LOOP('',(#617,#618,#624,#625));
#617 = ORIENTED_EDGE('',*,*,#307,.F.);
#618 = ORIENTED_EDGE('',*,*,#619,.F.);
#619 = EDGE_CURVE('',#187,#308,#620,.T.);
#620 = LINE('',#621,#622);
#621 = CARTESIAN_POINT('',(96.166666666667,24.802581857083,30.));
#622 = VECTOR('',#623,1.);
#623 = DIRECTION('',(-1.,0.,0.));
#624 = ORIENTED_EDGE('',*,*,#186,.T.);
#625 = ORIENTED_EDGE('',*,*,#626,.F.);
#626 = EDGE_CURVE('',#310,#189,#627,.T.);
#627 = LINE('',#628,#629);
#628 = CARTESIAN_POINT('',(75.,27.,30.));
#629 = VECTOR('',#630,1.);
#630 = DIRECTION('',(1.,0.,0.));
#631 = PLANE('',#632);
#632 = AXIS2_PLACEMENT_3D('',#633,#634,#635);
#633 = CARTESIAN_POINT('',(85.,13.646546837127,30.));
#634 = DIRECTION('',(0.,0.,1.));
#635 = DIRECTION('',(1.,0.,0.));
#636 = ADVANCED_FACE('',(#637),#648,.T.);
#637 = FACE_BOUND('',#638,.F.);
#638 = EDGE_LOOP('',(#639,#640,#646,#647));
#639 = ORIENTED_EDGE('',*,*,#237,.T.);
#640 = ORIENTED_EDGE('',*,*,#641,.T.);
#641 = EDGE_CURVE('',#230,#344,#642,.T.);
#642 = LINE('',#643,#644);
#643 = CARTESIAN_POINT('',(96.166666666667,22.153739078506,
    28.408414688358));
#644 = VECTOR('',#645,1.);
#645 = DIRECTION('',(-1.,0.,0.));
#646 = ORIENTED_EDGE('',*,*,#351,.F.);
#647 = ORIENTED_EDGE('',*,*,#619,.F.);
#648 = CYLINDRICAL_SURFACE('',#649,3.);
#649 = AXIS2_PLACEMENT_3D('',#650,#651,#652);
#650 = CARTESIAN_POINT('',(96.166666666667,24.802581857083,27.));
#651 = DIRECTION('',(-1.,0.,0.));
#652 = DIRECTION('',(0.,0.,1.));
#653 = ADVANCED_FACE('',(#654),#660,.T.);
#654 = FACE_BOUND('',#655,.F.);
#655 = EDGE_LOOP('',(#656,#657,#658,#659));
#656 = ORIENTED_EDGE('',*,*,#317,.T.);
#657 = ORIENTED_EDGE('',*,*,#291,.T.);
#658 = ORIENTED_EDGE('',*,*,#196,.F.);
#659 = ORIENTED_EDGE('',*,*,#626,.F.);
#660 = CYLINDRICAL_SURFACE('',#661,3.);
#661 = AXIS2_PLACEMENT_3D('',#662,#663,#664);
#662 = CARTESIAN_POINT('',(75.,27.,27.));
#663 = DIRECTION('',(1.,0.,0.));
#664 = DIRECTION('',(0.,0.,1.));
#665 = ADVANCED_FACE('',(#666),#677,.F.);
#666 = FACE_BOUND('',#667,.T.);
#667 = EDGE_LOOP('',(#668,#669,#670,#671));
#668 = ORIENTED_EDGE('',*,*,#229,.F.);
#669 = ORIENTED_EDGE('',*,*,#641,.T.);
#670 = ORIENTED_EDGE('',*,*,#343,.T.);
#671 = ORIENTED_EDGE('',*,*,#672,.F.);
#672 = EDGE_CURVE('',#222,#336,#673,.T.);
#673 = LINE('',#674,#675);
#674 = CARTESIAN_POINT('',(97.5,15.,14.954188277229));
#675 = VECTOR('',#676,1.);
#676 = DIRECTION('',(-1.,0.,0.));
#677 = PLANE('',#678);
#678 = AXIS2_PLACEMENT_3D('',#679,#680,#681);
#679 = CARTESIAN_POINT('',(97.5,19.,22.477094138615));
#680 = DIRECTION('',(1.096786356883E-16,0.882947592859,-0.469471562786)
  );
#681 = DIRECTION('',(1.,-9.684048736906E-17,5.149100050082E-17));
#682 = ADVANCED_FACE('',(#683),#689,.F.);
#683 = FACE_BOUND('',#684,.F.);
#684 = EDGE_LOOP('',(#685,#686,#687,#688));
#685 = ORIENTED_EDGE('',*,*,#221,.T.);
#686 = ORIENTED_EDGE('',*,*,#471,.T.);
#687 = ORIENTED_EDGE('',*,*,#335,.F.);
#688 = ORIENTED_EDGE('',*,*,#672,.F.);
#689 = PLANE('',#690);
#690 = AXIS2_PLACEMENT_3D('',#691,#692,#693);
#691 = CARTESIAN_POINT('',(97.5,15.,30.));
#692 = DIRECTION('',(0.,1.,0.));
#693 = DIRECTION('',(-1.,0.,0.));
#694 = ADVANCED_FACE('',(#695),#753,.F.);
#695 = FACE_BOUND('',#696,.F.);
#696 = EDGE_LOOP('',(#697,#707,#716,#722,#723,#729,#730,#738,#746));
#697 = ORIENTED_EDGE('',*,*,#698,.T.);
#698 = EDGE_CURVE('',#699,#701,#703,.T.);
#699 = VERTEX_POINT('',#700);
#700 = CARTESIAN_POINT('',(25.866236357153,24.802581857083,30.));
#701 = VERTEX_POINT('',#702);
#702 = CARTESIAN_POINT('',(25.5,27.,30.));
#703 = LINE('',#704,#705);
#704 = CARTESIAN_POINT('',(30.,0.,30.));
#705 = VECTOR('',#706,1.);
#706 = DIRECTION('',(-0.164398987305,0.986393923832,0.));
#707 = ORIENTED_EDGE('',*,*,#708,.T.);
#708 = EDGE_CURVE('',#701,#709,#711,.T.);
#709 = VERTEX_POINT('',#710);
#710 = CARTESIAN_POINT('',(25.,30.,27.));
#711 = ELLIPSE('',#712,3.041381265149,3.);
#712 = AXIS2_PLACEMENT_3D('',#713,#714,#715);
#713 = CARTESIAN_POINT('',(25.5,27.,27.));
#714 = DIRECTION('',(-0.986393923832,-0.164398987305,0.));
#715 = DIRECTION('',(0.164398987305,-0.986393923832,0.));
#716 = ORIENTED_EDGE('',*,*,#717,.F.);
#717 = EDGE_CURVE('',#537,#709,#718,.T.);
#718 = LINE('',#719,#720);
#719 = CARTESIAN_POINT('',(25.,30.,0.));
#720 = VECTOR('',#721,1.);
#721 = DIRECTION('',(0.,0.,1.));
#722 = ORIENTED_EDGE('',*,*,#544,.F.);
#723 = ORIENTED_EDGE('',*,*,#724,.T.);
#724 = EDGE_CURVE('',#545,#439,#725,.T.);
#725 = LINE('',#726,#727);
#726 = CARTESIAN_POINT('',(30.,0.,0.));
#727 = VECTOR('',#728,1.);
#728 = DIRECTION('',(0.,0.,1.));
#729 = ORIENTED_EDGE('',*,*,#436,.F.);
#730 = ORIENTED_EDGE('',*,*,#731,.F.);
#731 = EDGE_CURVE('',#732,#437,#734,.T.);
#732 = VERTEX_POINT('',#733);
#733 = CARTESIAN_POINT('',(27.5,15.,14.954188277229));
#734 = LINE('',#735,#736);
#735 = CARTESIAN_POINT('',(27.5,15.,30.));
#736 = VECTOR('',#737,1.);
#737 = DIRECTION('',(-0.,-0.,-1.));
#738 = ORIENTED_EDGE('',*,*,#739,.F.);
#739 = EDGE_CURVE('',#740,#732,#742,.T.);
#740 = VERTEX_POINT('',#741);
#741 = CARTESIAN_POINT('',(26.307710153582,22.153739078506,
    28.408414688358));
#742 = LINE('',#743,#744);
#743 = CARTESIAN_POINT('',(27.963551986885,12.218688078691,
    9.723301338441));
#744 = VECTOR('',#745,1.);
#745 = DIRECTION('',(7.80068334104E-02,-0.468041000462,-0.880257096437)
  );
#746 = ORIENTED_EDGE('',*,*,#747,.F.);
#747 = EDGE_CURVE('',#699,#740,#748,.T.);
#748 = ELLIPSE('',#749,3.041381265149,3.);
#749 = AXIS2_PLACEMENT_3D('',#750,#751,#752);
#750 = CARTESIAN_POINT('',(25.866236357153,24.802581857083,27.));
#751 = DIRECTION('',(0.986393923832,0.164398987305,-0.));
#752 = DIRECTION('',(-0.164398987305,0.986393923832,0.));
#753 = PLANE('',#754);
#754 = AXIS2_PLACEMENT_3D('',#755,#756,#757);
#755 = CARTESIAN_POINT('',(30.,0.,0.));
#756 = DIRECTION('',(-0.986393923832,-0.164398987305,0.));
#757 = DIRECTION('',(-0.164398987305,0.986393923832,0.));
#758 = ADVANCED_FACE('',(#759),#777,.F.);
#759 = FACE_BOUND('',#760,.F.);
#760 = EDGE_LOOP('',(#761,#762,#763,#771));
#761 = ORIENTED_EDGE('',*,*,#731,.T.);
#762 = ORIENTED_EDGE('',*,*,#446,.T.);
#763 = ORIENTED_EDGE('',*,*,#764,.F.);
#764 = EDGE_CURVE('',#765,#447,#767,.T.);
#765 = VERTEX_POINT('',#766);
#766 = CARTESIAN_POINT('',(2.5,15.,14.954188277229));
#767 = LINE('',#768,#769);
#768 = CARTESIAN_POINT('',(2.5,15.,30.));
#769 = VECTOR('',#770,1.);
#770 = DIRECTION('',(-0.,-0.,-1.));
#771 = ORIENTED_EDGE('',*,*,#772,.F.);
#772 = EDGE_CURVE('',#732,#765,#773,.T.);
#773 = LINE('',#774,#775);
#774 = CARTESIAN_POINT('',(27.5,15.,14.954188277229));
#775 = VECTOR('',#776,1.);
#776 = DIRECTION('',(-1.,0.,0.));
#777 = PLANE('',#778);
#778 = AXIS2_PLACEMENT_3D('',#779,#780,#781);
#779 = CARTESIAN_POINT('',(27.5,15.,30.));
#780 = DIRECTION('',(0.,1.,0.));
#781 = DIRECTION('',(-1.,0.,0.));
#782 = ADVANCED_FACE('',(#783),#829,.T.);
#783 = FACE_BOUND('',#784,.T.);
#784 = EDGE_LOOP('',(#785,#795,#804,#810,#811,#812,#813,#814,#822));
#785 = ORIENTED_EDGE('',*,*,#786,.T.);
#786 = EDGE_CURVE('',#787,#789,#791,.T.);
#787 = VERTEX_POINT('',#788);
#788 = CARTESIAN_POINT('',(4.133763642847,24.802581857083,30.));
#789 = VERTEX_POINT('',#790);
#790 = CARTESIAN_POINT('',(4.5,27.,30.));
#791 = LINE('',#792,#793);
#792 = CARTESIAN_POINT('',(0.,0.,30.));
#793 = VECTOR('',#794,1.);
#794 = DIRECTION('',(0.164398987305,0.986393923832,0.));
#795 = ORIENTED_EDGE('',*,*,#796,.T.);
#796 = EDGE_CURVE('',#789,#797,#799,.T.);
#797 = VERTEX_POINT('',#798);
#798 = CARTESIAN_POINT('',(5.,30.,27.));
#799 = ELLIPSE('',#800,3.041381265149,3.);
#800 = AXIS2_PLACEMENT_3D('',#801,#802,#803);
#801 = CARTESIAN_POINT('',(4.5,27.,27.));
#802 = DIRECTION('',(-0.986393923832,0.164398987305,0.));
#803 = DIRECTION('',(0.164398987305,0.986393923832,0.));
#804 = ORIENTED_EDGE('',*,*,#805,.F.);
#805 = EDGE_CURVE('',#529,#797,#806,.T.);
#806 = LINE('',#807,#808);
#807 = CARTESIAN_POINT('',(5.,30.,0.));
#808 = VECTOR('',#809,1.);
#809 = DIRECTION('',(0.,0.,1.));
#810 = ORIENTED_EDGE('',*,*,#528,.F.);
#811 = ORIENTED_EDGE('',*,*,#513,.T.);
#812 = ORIENTED_EDGE('',*,*,#454,.F.);
#813 = ORIENTED_EDGE('',*,*,#764,.F.);
#814 = ORIENTED_EDGE('',*,*,#815,.F.);
#815 = EDGE_CURVE('',#816,#765,#818,.T.);
#816 = VERTEX_POINT('',#817);
#817 = CARTESIAN_POINT('',(3.692289846418,22.153739078506,
    28.408414688358));
#818 = LINE('',#819,#820);
#819 = CARTESIAN_POINT('',(2.112511338849,12.675068033095,
    10.581627196942));
#820 = VECTOR('',#821,1.);
#821 = DIRECTION('',(-7.80068334104E-02,-0.468041000462,-0.880257096437)
  );
#822 = ORIENTED_EDGE('',*,*,#823,.F.);
#823 = EDGE_CURVE('',#787,#816,#824,.T.);
#824 = ELLIPSE('',#825,3.041381265149,3.);
#825 = AXIS2_PLACEMENT_3D('',#826,#827,#828);
#826 = CARTESIAN_POINT('',(4.133763642847,24.802581857083,27.));
#827 = DIRECTION('',(0.986393923832,-0.164398987305,0.));
#828 = DIRECTION('',(-0.164398987305,-0.986393923832,0.));
#829 = PLANE('',#830);
#830 = AXIS2_PLACEMENT_3D('',#831,#832,#833);
#831 = CARTESIAN_POINT('',(0.,0.,0.));
#832 = DIRECTION('',(-0.986393923832,0.164398987305,0.));
#833 = DIRECTION('',(0.164398987305,0.986393923832,0.));
#834 = ADVANCED_FACE('',(#835),#841,.F.);
#835 = FACE_BOUND('',#836,.F.);
#836 = EDGE_LOOP('',(#837,#838,#839,#840));
#837 = ORIENTED_EDGE('',*,*,#552,.T.);
#838 = ORIENTED_EDGE('',*,*,#568,.T.);
#839 = ORIENTED_EDGE('',*,*,#487,.F.);
#840 = ORIENTED_EDGE('',*,*,#724,.F.);
#841 = PLANE('',#842);
#842 = AXIS2_PLACEMENT_3D('',#843,#844,#845);
#843 = CARTESIAN_POINT('',(30.,0.,0.));
#844 = DIRECTION('',(-1.,0.,0.));
#845 = DIRECTION('',(0.,0.,1.));
#846 = ADVANCED_FACE('',(#847),#858,.T.);
#847 = FACE_BOUND('',#848,.T.);
#848 = EDGE_LOOP('',(#849,#850,#856,#857));
#849 = ORIENTED_EDGE('',*,*,#805,.T.);
#850 = ORIENTED_EDGE('',*,*,#851,.T.);
#851 = EDGE_CURVE('',#797,#709,#852,.T.);
#852 = LINE('',#853,#854);
#853 = CARTESIAN_POINT('',(5.,30.,27.));
#854 = VECTOR('',#855,1.);
#855 = DIRECTION('',(1.,0.,0.));
#856 = ORIENTED_EDGE('',*,*,#717,.F.);
#857 = ORIENTED_EDGE('',*,*,#536,.F.);
#858 = PLANE('',#859);
#859 = AXIS2_PLACEMENT_3D('',#860,#861,#862);
#860 = CARTESIAN_POINT('',(5.,30.,0.));
#861 = DIRECTION('',(0.,1.,0.));
#862 = DIRECTION('',(1.,0.,0.));
#863 = ADVANCED_FACE('',(#864),#880,.T.);
#864 = FACE_BOUND('',#865,.T.);
#865 = EDGE_LOOP('',(#866,#867,#873,#874));
#866 = ORIENTED_EDGE('',*,*,#786,.F.);
#867 = ORIENTED_EDGE('',*,*,#868,.F.);
#868 = EDGE_CURVE('',#699,#787,#869,.T.);
#869 = LINE('',#870,#871);
#870 = CARTESIAN_POINT('',(26.166666666667,24.802581857083,30.));
#871 = VECTOR('',#872,1.);
#872 = DIRECTION('',(-1.,0.,0.));
#873 = ORIENTED_EDGE('',*,*,#698,.T.);
#874 = ORIENTED_EDGE('',*,*,#875,.F.);
#875 = EDGE_CURVE('',#789,#701,#876,.T.);
#876 = LINE('',#877,#878);
#877 = CARTESIAN_POINT('',(5.,27.,30.));
#878 = VECTOR('',#879,1.);
#879 = DIRECTION('',(1.,0.,0.));
#880 = PLANE('',#881);
#881 = AXIS2_PLACEMENT_3D('',#882,#883,#884);
#882 = CARTESIAN_POINT('',(15.,13.646546837127,30.));
#883 = DIRECTION('',(0.,0.,1.));
#884 = DIRECTION('',(1.,0.,0.));
#885 = ADVANCED_FACE('',(#886),#897,.T.);
#886 = FACE_BOUND('',#887,.F.);
#887 = EDGE_LOOP('',(#888,#889,#895,#896));
#888 = ORIENTED_EDGE('',*,*,#747,.T.);
#889 = ORIENTED_EDGE('',*,*,#890,.T.);
#890 = EDGE_CURVE('',#740,#816,#891,.T.);
#891 = LINE('',#892,#893);
#892 = CARTESIAN_POINT('',(26.166666666667,22.153739078506,
    28.408414688358));
#893 = VECTOR('',#894,1.);
#894 = DIRECTION('',(-1.,0.,0.));
#895 = ORIENTED_EDGE('',*,*,#823,.F.);
#896 = ORIENTED_EDGE('',*,*,#868,.F.);
#897 = CYLINDRICAL_SURFACE('',#898,3.);
#898 = AXIS2_PLACEMENT_3D('',#899,#900,#901);
#899 = CARTESIAN_POINT('',(26.166666666667,24.802581857083,27.));
#900 = DIRECTION('',(-1.,0.,0.));
#901 = DIRECTION('',(0.,0.,1.));
#902 = ADVANCED_FACE('',(#903),#909,.T.);
#903 = FACE_BOUND('',#904,.F.);
#904 = EDGE_LOOP('',(#905,#906,#907,#908));
#905 = ORIENTED_EDGE('',*,*,#796,.T.);
#906 = ORIENTED_EDGE('',*,*,#851,.T.);
#907 = ORIENTED_EDGE('',*,*,#708,.F.);
#908 = ORIENTED_EDGE('',*,*,#875,.F.);
#909 = CYLINDRICAL_SURFACE('',#910,3.);
#910 = AXIS2_PLACEMENT_3D('',#911,#912,#913);
#911 = CARTESIAN_POINT('',(5.,27.,27.));
#912 = DIRECTION('',(1.,0.,0.));
#913 = DIRECTION('',(0.,0.,1.));
#914 = ADVANCED_FACE('',(#915),#921,.F.);
#915 = FACE_BOUND('',#916,.T.);
#916 = EDGE_LOOP('',(#917,#918,#919,#920));
#917 = ORIENTED_EDGE('',*,*,#739,.F.);
#918 = ORIENTED_EDGE('',*,*,#890,.T.);
#919 = ORIENTED_EDGE('',*,*,#815,.T.);
#920 = ORIENTED_EDGE('',*,*,#772,.F.);
#921 = PLANE('',#922);
#922 = AXIS2_PLACEMENT_3D('',#923,#924,#925);
#923 = CARTESIAN_POINT('',(27.5,19.,22.477094138615));
#924 = DIRECTION('',(1.1E-16,0.882947592859,-0.469471562786));
#925 = DIRECTION('',(1.,-9.843865072707E-17,4.916981586546E-17));
#926 = ( GEOMETRIC_REPRESENTATION_CONTEXT(3) 
GLOBAL_UNCERTAINTY_ASSIGNED_CONTEXT((#930)) GLOBAL_UNIT_ASSIGNED_CONTEXT
((#927,#928,#929)) REPRESENTATION_CONTEXT('Context #1',
  '3D Context with UNIT and UNCERTAINTY') );
#927 = ( LENGTH_UNIT() NAMED_UNIT(*) SI_UNIT(.MILLI.,.METRE.) );
#928 = ( NAMED_UNIT(*) PLANE_ANGLE_UNIT() SI_UNIT($,.RADIAN.) );
#929 = ( NAMED_UNIT(*) SI_UNIT($,.STERADIAN.) SOLID_ANGLE_UNIT() );
#930 = UNCERTAINTY_MEASURE_WITH_UNIT(LENGTH_MEASURE(2.E-06),#927,
  'distance_accuracy_value','confusion accuracy');
#931 = PRODUCT_RELATED_PRODUCT_CATEGORY('part',$,(#7));
#932 = MECHANICAL_DESIGN_GEOMETRIC_PRESENTATION_REPRESENTATION('',(#933)
  ,#926);
#933 = STYLED_ITEM('color',(#934),#15);
#934 = PRESENTATION_STYLE_ASSIGNMENT((#935,#941));
#935 = SURFACE_STYLE_USAGE(.BOTH.,#936);
#936 = SURFACE_SIDE_STYLE('',(#937));
#937 = SURFACE_STYLE_FILL_AREA(#938);
#938 = FILL_AREA_STYLE('',(#939));
#939 = FILL_AREA_STYLE_COLOUR('',#940);
#940 = COLOUR_RGB('',0.678431390124,0.709803936702,0.741176476869);
#941 = CURVE_STYLE('',#942,POSITIVE_LENGTH_MEASURE(0.1),#943);
#942 = DRAUGHTING_PRE_DEFINED_CURVE_FONT('continuous');
#943 = COLOUR_RGB('',9.803921802644E-02,9.803921802644E-02,
  9.803921802644E-02);
ENDSEC;
END-ISO-10303-21;
